<svg width="50" height="33" viewBox="0 0 50 33" fill="none" xmlns="http://www.w3.org/2000/svg">
<g clip-path="url(#clip0_304_525)">
<path d="M24.4382 14.2321L24.4479 11.6811C24.4576 9.23753 22.8805 7.07701 20.5602 6.36117L8.50264 2.62256L2.94409 0.901302V0.907809L0 0C0 0 3.37068 1.78959 4.68599 4.68547C5.18367 5.76573 6.10471 6.58894 7.23258 6.95987C15.1729 9.5564 22.0629 11.5217 24.4415 14.2321H24.4382Z" fill="black"/>
<path d="M22.1798 13.487C21.1359 12.6442 20.8871 12.5726 19.1969 11.9349C19.7527 12.6735 20.147 13.9165 20.286 16.4284L14.3525 14.5249L13.0566 11.1377C12.769 10.3828 12.1485 9.81018 11.3761 9.58566L6.33789 8.11169L13.215 22.7245C13.7579 24.0618 16.3982 26.3069 19.8562 28.9067L16.4144 19.91L24.5292 22.4609V17.834C24.5292 16.077 24.1317 15.0585 22.183 13.4805L22.1798 13.487Z" fill="black"/>
<path d="M30.2593 23.8145L31.1157 11.9349C30.5857 12.1985 29.6065 12.7549 28.0327 13.6952C26.0484 15.166 25.8125 15.7744 25.8125 17.3037V32.9968L33.8045 26.6161C35.6046 25.1779 37.0266 23.32 37.9476 21.2017L39.1013 18.5466C37.0589 19.1193 35.1231 19.6822 33.8498 20.1768C33.281 21.5434 32.4569 22.7115 30.2593 23.8113V23.8145Z" fill="black"/>
<path d="M49.6586 0.302631L43.89 2.1215L30.3653 6.28636C27.6474 7.12259 25.8021 9.66706 25.8344 12.5271L25.857 14.3232C27.99 12.0619 32.1395 10.0673 39.2105 8.45339L36.9644 13.5293L41.6989 12.0749C41.9865 11.987 42.2257 11.7788 42.3549 11.5055L45.1116 5.69092C47.1023 1.49027 49.6586 0.299377 49.6586 0.299377V0.302631Z" fill="black"/>
<path d="M24.4382 14.2321L24.4479 11.6811C24.4576 9.23753 22.8805 7.07701 20.5602 6.36117L8.50264 2.62256L2.94409 0.901302V0.907809L0 0C0 0 3.37068 1.78959 4.68599 4.68547C5.18367 5.76573 6.10471 6.58894 7.23258 6.95987C15.1729 9.5564 22.0629 11.5217 24.4415 14.2321H24.4382Z" fill="white"/>
<path d="M22.1798 13.487C21.1359 12.6442 20.8871 12.5726 19.1969 11.9349C19.7527 12.6735 20.147 13.9165 20.286 16.4284L14.3525 14.5249L13.0566 11.1377C12.769 10.3828 12.1485 9.81018 11.3761 9.58566L6.33789 8.11169L13.215 22.7245C13.7579 24.0618 16.3982 26.3069 19.8562 28.9067L16.4144 19.91L24.5292 22.4609V17.834C24.5292 16.077 24.1317 15.0585 22.183 13.4805L22.1798 13.487Z" fill="white"/>
<path d="M30.2593 23.8145L31.1157 11.9349C30.5857 12.1985 29.6065 12.7549 28.0327 13.6952C26.0484 15.166 25.8125 15.7744 25.8125 17.3037V32.9968L33.8045 26.6161C35.6046 25.1779 37.0266 23.32 37.9476 21.2017L39.1013 18.5466C37.0589 19.1193 35.1231 19.6822 33.8498 20.1768C33.281 21.5434 32.4569 22.7115 30.2593 23.8113V23.8145Z" fill="white"/>
<path d="M49.6586 0.302631L43.89 2.1215L30.3653 6.28636C27.6474 7.12259 25.8021 9.66706 25.8344 12.5271L25.857 14.3232C27.99 12.0619 32.1395 10.0673 39.2105 8.45339L36.9644 13.5293L41.6989 12.0749C41.9865 11.987 42.2257 11.7788 42.3549 11.5055L45.1116 5.69092C47.1023 1.49027 49.6586 0.299377 49.6586 0.299377V0.302631Z" fill="white"/>
<path d="M12.873 2.32947C12.873 2.32947 22.3214 5.03962 24.7391 5.84973C25.1362 5.98312 25.5623 5.98638 25.9626 5.86275L37.4381 2.32947C29.4649 -0.71578 21.2852 -0.832905 12.873 2.32947Z" fill="#E0CA3C"/>
</g>
<defs>
<clipPath id="clip0_304_525">
<rect width="50" height="32.9967" fill="white"/>
</clipPath>
</defs>
</svg>
