<svg width="217" height="33" viewBox="0 0 217 33" fill="none" xmlns="http://www.w3.org/2000/svg">
<g clip-path="url(#clip0_351_5)">
<path d="M24.4382 14.2321L24.4479 11.6811C24.4576 9.23753 22.8805 7.07701 20.5602 6.36117L8.50264 2.62256L2.94409 0.901302V0.907809L0 0C0 0 3.37068 1.78959 4.68599 4.68547C5.18367 5.76573 6.10471 6.58894 7.23258 6.95987C15.1729 9.5564 22.0629 11.5217 24.4415 14.2321H24.4382Z" fill="black"/>
<path d="M22.1778 13.4871C21.134 12.6444 20.8851 12.5728 19.1949 11.935C19.7508 12.6736 20.1451 13.9166 20.284 16.4285L14.3506 14.525L13.0547 11.1378C12.7671 10.383 12.1466 9.8103 11.3742 9.58579L6.33594 8.11182L13.213 22.7246C13.756 24.0619 16.3963 26.307 19.8542 28.9068L16.4124 19.9101L24.5273 22.4611V17.8342C24.5273 16.0771 24.1298 15.0587 22.181 13.4806L22.1778 13.4871Z" fill="black"/>
<path d="M30.2593 23.8144L31.1157 11.9348C30.5857 12.1984 29.6065 12.7548 28.0327 13.6951C26.0484 15.1658 25.8125 15.7743 25.8125 17.3036V32.9966L33.8045 26.6159C35.6046 25.1778 37.0266 23.3198 37.9476 21.2016L39.1013 18.5465C37.0589 19.1192 35.1231 19.6821 33.8498 20.1767C33.281 21.5433 32.4569 22.7114 30.2593 23.8112V23.8144Z" fill="black"/>
<path d="M49.6567 0.30257L43.888 2.12144L30.3633 6.2863C27.6454 7.12253 25.8001 9.667 25.8324 12.5271L25.8551 14.3232C27.988 12.0618 32.1375 10.0672 39.2085 8.45333L36.9625 13.5293L41.6969 12.0748C41.9846 11.987 42.2237 11.7787 42.353 11.5054L45.1096 5.69086C47.1004 1.49021 49.6567 0.299316 49.6567 0.299316V0.30257Z" fill="black"/>
<path d="M24.4382 14.2321L24.4479 11.6811C24.4576 9.23753 22.8805 7.07701 20.5602 6.36117L8.50264 2.62256L2.94409 0.901302V0.907809L0 0C0 0 3.37068 1.78959 4.68599 4.68547C5.18367 5.76573 6.10471 6.58894 7.23258 6.95987C15.1729 9.5564 22.0629 11.5217 24.4415 14.2321H24.4382Z" fill="white"/>
<path d="M22.1778 13.4871C21.134 12.6444 20.8851 12.5728 19.1949 11.935C19.7508 12.6736 20.1451 13.9166 20.284 16.4285L14.3506 14.525L13.0547 11.1378C12.7671 10.383 12.1466 9.8103 11.3742 9.58579L6.33594 8.11182L13.213 22.7246C13.756 24.0619 16.3963 26.307 19.8542 28.9068L16.4124 19.9101L24.5273 22.4611V17.8342C24.5273 16.0771 24.1298 15.0587 22.181 13.4806L22.1778 13.4871Z" fill="white"/>
<path d="M30.2593 23.8144L31.1157 11.9348C30.5857 12.1984 29.6065 12.7548 28.0327 13.6951C26.0484 15.1658 25.8125 15.7743 25.8125 17.3036V32.9966L33.8045 26.6159C35.6046 25.1778 37.0266 23.3198 37.9476 21.2016L39.1013 18.5465C37.0589 19.1192 35.1231 19.6821 33.8498 20.1767C33.281 21.5433 32.4569 22.7114 30.2593 23.8112V23.8144Z" fill="white"/>
<path d="M49.6567 0.30257L43.888 2.12144L30.3633 6.2863C27.6454 7.12253 25.8001 9.667 25.8324 12.5271L25.8551 14.3232C27.988 12.0618 32.1375 10.0672 39.2085 8.45333L36.9625 13.5293L41.6969 12.0748C41.9846 11.987 42.2237 11.7787 42.353 11.5054L45.1096 5.69086C47.1004 1.49021 49.6567 0.299316 49.6567 0.299316V0.30257Z" fill="white"/>
<path d="M66.718 6.87367C66.1201 6.71098 64.8307 6.62964 62.8593 6.62964H57.6562V22.801H60.9009V16.7001H63.0177C64.4849 16.7001 65.603 16.622 66.3786 16.4691C66.9474 16.3422 67.5097 16.0884 68.0624 15.7012C68.6118 15.3173 69.0707 14.7869 69.4262 14.1069C69.7849 13.4333 69.9594 12.5938 69.9594 11.6047C69.9594 10.3162 69.6491 9.26847 69.0287 8.45502C68.4114 7.64157 67.639 7.1112 66.7212 6.87042L66.718 6.87367ZM66.2526 12.9095C66.007 13.2706 65.6709 13.5309 65.2379 13.7034C64.808 13.8726 63.9516 13.9572 62.6751 13.9572H60.9009V9.36933H62.4683C63.6382 9.36933 64.417 9.40513 64.8016 9.47996C65.3283 9.57758 65.7614 9.81511 66.1072 10.1958C66.4497 10.5797 66.621 11.0646 66.621 11.6568C66.621 12.1351 66.5015 12.5548 66.2558 12.9127L66.2526 12.9095Z" fill="white"/>
<path d="M80.8079 18.9549L80.8402 15.3367C80.8402 13.9896 80.7044 13.0655 80.4297 12.5644C80.1518 12.0601 79.6832 11.6436 79.0078 11.315C78.3388 10.9928 77.3144 10.8269 75.9409 10.8269C74.4317 10.8269 73.2909 11.097 72.525 11.6436C71.7591 12.1902 71.2161 13.0265 70.9026 14.1588L73.6981 14.6696C73.8855 14.123 74.1344 13.7423 74.4414 13.5243C74.7516 13.3096 75.175 13.2022 75.7276 13.2022C76.5388 13.2022 77.0881 13.3291 77.3822 13.5829C77.6699 13.8334 77.8185 14.2629 77.8185 14.8551V15.161C77.2659 15.3985 76.2641 15.649 74.8259 15.9256C73.7595 16.1306 72.9419 16.3714 72.3763 16.6447C71.8108 16.918 71.3712 17.3182 71.0545 17.8388C70.7411 18.3562 70.5859 18.9451 70.5859 19.6089C70.5859 20.6078 70.9317 21.4375 71.6233 22.0915C72.3149 22.7456 73.2586 23.0742 74.4543 23.0742C75.133 23.0742 75.7728 22.944 76.3739 22.687C76.9718 22.4267 77.5341 22.0427 78.0609 21.5319C78.0803 21.5872 78.1158 21.7109 78.1708 21.8963C78.2871 22.2998 78.3873 22.6024 78.4681 22.8106H81.5124C81.2441 22.2542 81.0599 21.7271 80.963 21.2391C80.8628 20.751 80.8143 19.9928 80.8143 18.9614L80.8079 18.9549ZM77.8153 17.7933C77.8153 18.5384 77.7765 19.0427 77.6957 19.3063C77.5794 19.7098 77.3338 20.0547 76.9621 20.3345C76.4547 20.7022 75.9312 20.8844 75.3721 20.8844C74.8777 20.8844 74.4672 20.7282 74.1473 20.4126C73.8273 20.097 73.6658 19.7228 73.6658 19.29C73.6658 18.8573 73.8661 18.4863 74.2669 18.2C74.5286 18.021 75.0845 17.8388 75.9409 17.6599C76.7973 17.4744 77.421 17.315 77.8153 17.1881V17.803V17.7933Z" fill="white"/>
<path d="M93.685 12.1383C93.3974 11.7543 92.9708 11.4387 92.4085 11.1914C91.8461 10.9474 91.2224 10.8237 90.5438 10.8237C89.0022 10.8237 87.7257 11.4875 86.7077 12.8085V11.0873H83.8477V22.8042H86.9275V17.5005C86.9275 16.1892 87.005 15.2944 87.1634 14.8064C87.3185 14.3216 87.6094 13.9344 88.0295 13.6383C88.4561 13.3422 88.9344 13.199 89.4676 13.199C89.8845 13.199 90.24 13.2999 90.5373 13.5049C90.8346 13.7098 91.0479 13.9994 91.1804 14.3704C91.3097 14.7413 91.3775 15.558 91.3775 16.8237V22.8042H94.4541V15.5222C94.4541 14.6209 94.3992 13.9246 94.2861 13.4398C94.173 12.955 93.9726 12.519 93.685 12.1383Z" fill="white"/>
<path d="M101.67 20.4973C101.466 20.4973 101.292 20.4453 101.146 20.3444C101.008 20.2403 100.914 20.1101 100.875 19.9507C100.836 19.7945 100.814 19.2349 100.814 18.2783V13.5603H102.917V11.0874H100.814V8.38672L97.7209 9.52555V11.0841H96.3086V13.557H97.7209V18.6622C97.7209 19.7587 97.7564 20.4843 97.821 20.8455C97.9018 21.3563 98.0473 21.7566 98.2541 22.0559C98.4641 22.3553 98.7873 22.596 99.2333 22.7848C99.6793 22.9702 100.177 23.0678 100.736 23.0678C101.641 23.0678 102.452 22.9117 103.166 22.6026L102.905 20.198C102.362 20.3965 101.954 20.4973 101.667 20.4973H101.67Z" fill="white"/>
<path d="M114.886 12.2359C114.598 11.8226 114.169 11.4875 113.597 11.2207C113.028 10.9571 112.388 10.8237 111.677 10.8237C110.3 10.8237 109.111 11.4094 108.119 12.5775V5.69897L105.039 6.8313V22.8042H108.119V16.9376C108.119 15.9517 108.213 15.2066 108.397 14.7022C108.584 14.2011 108.878 13.8204 109.279 13.5699C109.68 13.3226 110.139 13.199 110.649 13.199C111.095 13.199 111.464 13.2966 111.761 13.4886C112.058 13.6838 112.262 13.9441 112.378 14.276C112.495 14.6079 112.556 15.3888 112.556 16.6122V22.8009H115.633V15.9289C115.633 14.8779 115.581 14.1003 115.478 13.6057C115.374 13.1046 115.174 12.6491 114.886 12.2359Z" fill="white"/>
<path d="M127.292 12.5515C126.287 11.3997 124.923 10.8237 123.191 10.8237C121.65 10.8237 120.376 11.3736 119.368 12.4734C118.36 13.5732 117.855 15.0927 117.855 17.0352C117.855 18.6589 118.24 20.0059 119.009 21.0732C119.982 22.404 121.478 23.071 123.501 23.071C124.778 23.071 125.841 22.7717 126.694 22.1827C127.544 21.5938 128.168 20.7283 128.562 19.596L125.495 19.0786C125.327 19.6643 125.078 20.0938 124.752 20.3574C124.422 20.6242 124.018 20.7576 123.537 20.7576C122.826 20.7576 122.234 20.4973 121.763 19.9897C121.284 19.4788 121.039 18.7662 121.016 17.8422H128.73C128.775 15.4702 128.297 13.7066 127.295 12.5547L127.292 12.5515ZM121.071 15.942C121.065 15.096 121.281 14.4257 121.717 13.9311C122.154 13.443 122.71 13.1957 123.378 13.1957C124.009 13.1957 124.542 13.4268 124.981 13.8953C125.418 14.3606 125.647 15.0439 125.673 15.942H121.071Z" fill="white"/>
<path d="M135.283 11.2011C134.892 11.4516 134.453 11.969 133.962 12.7532V11.0872H131.102V22.8041H134.181V19.1859C134.181 17.1913 134.265 15.8866 134.44 15.2618C134.608 14.6338 134.844 14.2011 135.148 13.9636C135.445 13.726 135.81 13.6089 136.243 13.6089C136.676 13.6089 137.171 13.7748 137.688 14.1132L138.638 11.4126C137.988 11.0189 137.313 10.8269 136.612 10.8269C136.117 10.8269 135.671 10.9538 135.283 11.2043V11.2011Z" fill="white"/>
<path d="M146.93 21.2456C143.447 21.2456 141.701 19.0297 141.701 14.6046C141.701 10.1794 143.479 8.18809 147.043 8.18809C149.18 8.18809 150.608 9.31716 151.329 11.5753L153.436 11.0775C152.541 7.93104 150.424 6.3562 147.089 6.3562C144.817 6.3562 142.988 7.09481 141.611 8.57204C140.205 10.0753 139.504 12.0894 139.504 14.6046C139.504 17.1198 140.186 19.2673 141.546 20.8616C142.803 22.3388 144.626 23.0742 147.021 23.0742C150.55 23.0742 152.78 21.2749 153.707 17.6762L151.574 17.136C151.009 19.8757 149.458 21.2488 146.934 21.2488L146.93 21.2456Z" fill="white"/>
<path d="M165.51 19.3453V14.3312C165.494 14.0286 165.471 13.7651 165.442 13.5373C165.348 12.9809 165.148 12.5156 164.835 12.1382C164.133 11.2662 162.831 10.8269 160.931 10.8269C157.983 10.8269 156.251 12.0308 155.747 14.4419L157.673 14.6892C157.87 13.9375 158.132 13.4072 158.462 13.1078C158.924 12.6718 159.673 12.4538 160.708 12.4538C161.829 12.4538 162.608 12.7011 163.041 13.1989C163.371 13.5764 163.535 14.1816 163.535 15.0048V15.3692C163.025 15.5482 162.346 15.7076 161.493 15.841C161.212 15.8866 160.821 15.9386 160.329 15.9972L159.118 16.1534C156.649 16.5015 155.414 17.6827 155.414 19.7033C155.414 21.9484 156.758 23.0677 159.454 23.0677C160.934 23.0677 162.34 22.4983 163.671 21.3529C163.732 21.8801 163.868 22.3584 164.075 22.7976H166.14C165.81 22.2119 165.617 21.4863 165.558 20.6306C165.526 20.2824 165.513 19.8529 165.513 19.3421L165.51 19.3453ZM163.535 17.6534C163.535 18.2716 163.484 18.7597 163.38 19.1208C163.261 19.6056 163.018 20.0351 162.663 20.4093C161.962 21.1447 161.06 21.5156 159.968 21.5156C158.339 21.5156 157.521 20.8974 157.521 19.661C157.521 19.1078 157.709 18.6751 158.083 18.3757C158.381 18.1317 158.862 17.9462 159.522 17.8096L161.474 17.4939C162.298 17.3443 162.983 17.1555 163.539 16.9278V17.6501L163.535 17.6534Z" fill="white"/>
<path d="M173.698 10.8336C172.308 10.8336 171.193 11.429 170.356 12.6167V11.1036H168.562V27.2978H170.534V21.5809C171.313 22.5635 172.327 23.0516 173.585 23.0516C175.036 23.0516 176.235 22.5017 177.175 21.4019C178.164 20.2403 178.655 18.698 178.655 16.7685C178.655 14.9952 178.196 13.5635 177.285 12.48C176.39 11.3802 175.194 10.8303 173.694 10.8303L173.698 10.8336ZM175.718 20.2956C175.136 21.0472 174.38 21.4247 173.452 21.4247C171.371 21.4247 170.333 19.9572 170.333 17.0223C170.333 15.6199 170.637 14.4908 171.255 13.6318C171.852 12.8086 172.615 12.3921 173.543 12.3921C175.608 12.3921 176.639 13.8824 176.639 16.8629C176.639 18.3433 176.335 19.4854 175.718 20.2989V20.2956Z" fill="white"/>
<path d="M183.01 11.1035H181.035V22.8042H183.01V11.1035Z" fill="white"/>
<path d="M183.01 6.62622H181.035V8.88761H183.01V6.62622Z" fill="white"/>
<path d="M189.764 21.1968C189.599 21.2293 189.463 21.2456 189.36 21.2456C188.869 21.2456 188.545 21.0992 188.397 20.8128C188.335 20.6794 188.3 20.507 188.284 20.2955C188.271 20.1588 188.264 19.9278 188.264 19.5959V12.5905H190.236V11.1035H188.264V6.99072L186.29 8.18812V11.1035H184.852V12.5905H186.29V20.1588C186.29 20.4029 186.306 20.6209 186.335 20.8128C186.38 21.2814 186.474 21.6588 186.629 21.9452C187.004 22.6968 187.818 23.0742 189.075 23.0742C189.508 23.0742 189.996 23.0124 190.533 22.892L190.239 21.135L189.77 21.2001L189.764 21.1968Z" fill="white"/>
<path d="M201.679 19.3453V14.3312C201.662 14.0286 201.643 13.7651 201.611 13.5373C201.523 12.9809 201.323 12.5156 201.01 12.1382C200.302 11.2662 199.003 10.8269 197.102 10.8269C194.155 10.8269 192.429 12.0308 191.919 14.4419L193.851 14.6892C194.045 13.9375 194.31 13.4072 194.64 13.1078C195.102 12.6718 195.849 12.4538 196.879 12.4538C198.004 12.4538 198.78 12.7011 199.216 13.1989C199.542 13.5764 199.707 14.1816 199.707 15.0048V15.3692C199.2 15.5482 198.518 15.7076 197.668 15.841C197.384 15.8866 196.993 15.9386 196.498 15.9972L195.289 16.1534C192.82 16.5015 191.586 17.6827 191.586 19.7033C191.586 21.9484 192.93 23.0677 195.622 23.0677C197.102 23.0677 198.508 22.4983 199.843 21.3529C199.904 21.8801 200.037 22.3584 200.247 22.7976H202.312C201.982 22.2119 201.785 21.4863 201.727 20.6306C201.698 20.2824 201.682 19.8529 201.682 19.3421L201.679 19.3453ZM199.701 17.6534C199.701 18.2716 199.649 18.7597 199.546 19.1208C199.429 19.6056 199.187 20.0351 198.828 20.4093C198.127 21.1447 197.229 21.5156 196.139 21.5156C194.511 21.5156 193.693 20.8974 193.693 19.661C193.693 19.1078 193.877 18.6751 194.255 18.3757C194.553 18.1317 195.031 17.9462 195.69 17.8096L197.642 17.4939C198.466 17.3443 199.155 17.1555 199.707 16.9278V17.6501L199.701 17.6534Z" fill="white"/>
<path d="M203.883 22.8041H205.857V8.65008L203.883 6.62622V22.8041Z" fill="white"/>
<path d="M215.598 16.8725C215.291 16.6383 214.904 16.43 214.435 16.2543C214.083 16.1209 213.643 15.981 213.116 15.8346L211.775 15.5027C211.278 15.3856 210.89 15.2749 210.612 15.1708C209.849 14.8617 209.468 14.4485 209.468 13.9311C209.468 12.9289 210.289 12.4279 211.93 12.4279C213.41 12.4279 214.238 13.0558 214.412 14.3086L216.303 14.0417C216.229 13.5699 216.128 13.186 215.996 12.8899C215.834 12.5222 215.585 12.1903 215.249 11.8942C214.458 11.1849 213.314 10.8335 211.82 10.8335C210.518 10.8335 209.477 11.1524 208.699 11.7836C207.965 12.3888 207.6 13.1697 207.6 14.1296C207.6 15.0895 207.975 15.8704 208.721 16.43C209.028 16.6513 209.41 16.8498 209.865 17.0287C210.218 17.1621 210.657 17.2955 211.184 17.4257L212.502 17.7576C212.987 17.8747 213.365 17.9951 213.646 18.1122C214.393 18.4213 214.768 18.8508 214.768 19.3942C214.768 20.6046 213.889 21.2099 212.131 21.2099C210.373 21.2099 209.406 20.4224 209.187 18.8411L207.273 19.1274C207.697 21.5775 209.374 22.801 212.305 22.801C213.624 22.801 214.7 22.4463 215.537 21.7402C216.342 21.0472 216.746 20.1914 216.746 19.173C216.746 18.1545 216.364 17.4322 215.602 16.8725H215.598Z" fill="white"/>
<path d="M12.875 2.32953C12.875 2.32953 22.3233 5.03968 24.7411 5.84979C25.1381 5.98319 25.5642 5.98644 25.9645 5.86281L37.44 2.32953C29.4669 -0.715719 21.2871 -0.832844 12.875 2.32953Z" fill="#E0CA3C"/>
</g>
<defs>
<clipPath id="clip0_351_5">
<rect width="216.746" height="32.9969" fill="white"/>
</clipPath>
</defs>
</svg>
