<?xml version="1.0" encoding="UTF-8"?>
<svg id="Layer_2" data-name="Layer 2" xmlns="http://www.w3.org/2000/svg" viewBox="0 0 561.49 388.8">
  <defs>
    <style>
      .cls-1 {
        fill: #fff;
      }
    </style>
  </defs>
  <g id="Layer_1-2" data-name="Layer 1">
    <g>
      <path class="cls-1" d="M276.33,178.03l.12-28.66c.11-27.43-17.74-51.69-43.95-59.76L96.14,47.68h-.02s-62.81-19.32-62.81-19.32l.04.08L0,18.22s38.12,20.1,52.99,52.6c5.63,12.14,16.05,21.39,28.78,25.53,89.8,29.18,167.67,51.25,194.56,81.68Z"/>
      <path class="cls-1" d="M250.78,169.67c-11.81-9.48-14.62-10.26-33.74-17.42,6.3,8.29,10.73,22.25,12.32,50.48l-67.09-21.36-14.66-38.05c-3.26-8.46-10.28-14.91-18.99-17.44l-56.95-16.53,77.75,164.12c6.15,15.02,35.98,40.23,75.09,69.43l-38.93-101.04,91.74,28.66v-51.96c0-19.73-4.48-31.17-26.53-48.88Z"/>
      <path class="cls-1" d="M342.11,285.66l9.67-133.41c-5.99,2.95-17.08,9.2-34.85,19.78-22.45,16.52-25.12,23.34-25.12,40.53v176.24l90.35-71.64c20.35-16.14,36.43-37.01,46.84-60.81l13.05-29.83c-23.1,6.44-44.97,12.76-59.36,18.3-6.41,15.34-15.76,28.47-40.58,40.83Z"/>
      <path class="cls-1" d="M496.26,42.04l-152.92,46.76c-30.74,9.4-51.6,37.95-51.22,70.1l.24,20.19c24.13-25.38,71.02-47.8,150.99-65.91l-25.39,57,53.54-16.33c3.26-.99,5.96-3.31,7.43-6.39l31.15-65.29c22.5-47.16,51.42-60.54,51.42-60.54l-65.24,20.42Z"/>
      <path class="cls-1" d="M122.54,25.42s123.47,46.95,150.82,56.02c4.49,1.49,9.33,1.54,13.86.16l144.9-54.68C341.87-7.27,217.78-10.11,122.54,25.42Z"/>
    </g>
  </g>
</svg>