<?xml version="1.0" encoding="UTF-8"?>
<svg id="Layer_2" data-name="Layer 2" xmlns="http://www.w3.org/2000/svg" viewBox="0 0 671.47 101.42">
  <defs>
    <style>
      .cls-1 {
        fill: #fff;
      }
    </style>
  </defs>
  <g id="Layer_1-2" data-name="Layer 1">
    <g>
      <g>
        <g>
          <path d="M75.62,43.74l.03-7.84c.03-7.51-4.85-14.15-12.03-16.35L26.31,8.06h0S9.11,2.77,9.11,2.77v.02S0,0,0,0c0,0,10.43,5.5,14.5,14.4,1.54,3.32,4.39,5.85,7.88,6.99,24.57,7.98,45.89,14.02,53.25,22.35Z"/>
          <path d="M68.63,41.45c-3.23-2.59-4-2.81-9.23-4.77,1.72,2.27,2.94,6.09,3.37,13.81l-18.36-5.85-4.01-10.41c-.89-2.32-2.81-4.08-5.2-4.77l-15.59-4.53,21.28,44.91c1.68,4.11,9.85,11.01,20.55,19l-10.65-27.65,25.11,7.84v-14.22c0-5.4-1.23-8.53-7.26-13.38Z"/>
          <path d="M93.63,73.19l2.65-36.51c-1.64.81-4.67,2.52-9.54,5.41-6.14,4.52-6.87,6.39-6.87,11.09v48.23l24.73-19.61c5.57-4.42,9.97-10.13,12.82-16.64l3.57-8.16c-6.32,1.76-12.31,3.49-16.25,5.01-1.76,4.2-4.31,7.79-11.11,11.17Z"/>
          <path d="M153.66.93l-17.85,5.59-41.85,12.8c-8.41,2.57-14.12,10.39-14.02,19.18l.07,5.52c6.6-6.95,19.44-13.08,41.32-18.04l-6.95,15.6,14.65-4.47c.89-.27,1.63-.91,2.03-1.75l8.53-17.87c6.16-12.91,14.07-16.57,14.07-16.57Z"/>
        </g>
        <g>
          <path class="cls-1" d="M75.62,43.74l.03-7.84c.03-7.51-4.85-14.15-12.03-16.35L26.31,8.06h0S9.11,2.77,9.11,2.77v.02S0,0,0,0c0,0,10.43,5.5,14.5,14.4,1.54,3.32,4.39,5.85,7.88,6.99,24.57,7.98,45.89,14.02,53.25,22.35Z"/>
          <path class="cls-1" d="M68.63,41.45c-3.23-2.59-4-2.81-9.23-4.77,1.72,2.27,2.94,6.09,3.37,13.81l-18.36-5.85-4.01-10.41c-.89-2.32-2.81-4.08-5.2-4.77l-15.59-4.53,21.28,44.91c1.68,4.11,9.85,11.01,20.55,19l-10.65-27.65,25.11,7.84v-14.22c0-5.4-1.23-8.53-7.26-13.38Z"/>
          <path class="cls-1" d="M93.63,73.19l2.65-36.51c-1.64.81-4.67,2.52-9.54,5.41-6.14,4.52-6.87,6.39-6.87,11.09v48.23l24.73-19.61c5.57-4.42,9.97-10.13,12.82-16.64l3.57-8.16c-6.32,1.76-12.31,3.49-16.25,5.01-1.76,4.2-4.31,7.79-11.11,11.17Z"/>
          <path class="cls-1" d="M153.66.93l-17.85,5.59-41.85,12.8c-8.41,2.57-14.12,10.39-14.02,19.18l.07,5.52c6.6-6.95,19.44-13.08,41.32-18.04l-6.95,15.6,14.65-4.47c.89-.27,1.63-.91,2.03-1.75l8.53-17.87c6.16-12.91,14.07-16.57,14.07-16.57Z"/>
        </g>
      </g>
      <g>
        <path class="cls-1" d="M207.25,26.01c-1.85-.5-5.84-.75-11.94-.75h-16.1v49.7h10.04v-18.75h6.55c4.54,0,8-.24,10.4-.71,1.76-.39,3.5-1.17,5.21-2.36,1.7-1.18,3.12-2.81,4.22-4.9,1.11-2.07,1.65-4.65,1.65-7.69,0-3.96-.96-7.18-2.88-9.68-1.91-2.5-4.3-4.13-7.14-4.87ZM205.81,44.56c-.76,1.11-1.8,1.91-3.14,2.44-1.33.52-3.98.78-7.93.78h-5.49v-14.1h4.85c3.62,0,6.03.11,7.22.34,1.63.3,2.97,1.03,4.04,2.2,1.06,1.18,1.59,2.67,1.59,4.49,0,1.47-.37,2.76-1.13,3.86Z"/>
        <path class="cls-1" d="M250.85,63.14l.1-11.12c0-4.14-.42-6.98-1.27-8.52-.86-1.55-2.31-2.83-4.4-3.84-2.07-.99-5.24-1.5-9.49-1.5-4.67,0-8.2.83-10.57,2.51-2.37,1.68-4.05,4.25-5.02,7.73l8.65,1.57c.58-1.68,1.35-2.85,2.3-3.52.96-.66,2.27-.99,3.98-.99,2.51,0,4.21.39,5.12,1.17.89.77,1.35,2.09,1.35,3.91v.94c-1.71.73-4.81,1.5-9.26,2.35-3.3.63-5.83,1.37-7.58,2.21-1.75.84-3.11,2.07-4.09,3.67-.97,1.59-1.45,3.4-1.45,5.44,0,3.07,1.07,5.62,3.21,7.63,2.14,2.01,5.06,3.02,8.76,3.02,2.1,0,4.08-.4,5.94-1.19,1.85-.8,3.59-1.98,5.22-3.55.06.17.17.55.34,1.12.36,1.24.67,2.17.92,2.81h9.42c-.83-1.71-1.4-3.33-1.7-4.83-.31-1.5-.46-3.83-.46-7ZM241.59,59.57c0,2.29-.12,3.84-.37,4.65-.36,1.24-1.12,2.3-2.27,3.16-1.57,1.13-3.19,1.69-4.92,1.69-1.53,0-2.8-.48-3.79-1.45-.99-.97-1.49-2.12-1.49-3.45s.62-2.47,1.86-3.35c.81-.55,2.53-1.11,5.18-1.66,2.65-.57,4.58-1.06,5.8-1.45v1.89Z"/>
        <path class="cls-1" d="M290.7,42.19c-.89-1.18-2.21-2.15-3.95-2.91-1.74-.75-3.67-1.13-5.77-1.13-4.77,0-8.72,2.04-11.87,6.1v-5.29h-8.85v36.01h9.53v-16.3c0-4.03.24-6.78.73-8.28.48-1.49,1.38-2.68,2.68-3.59,1.32-.91,2.8-1.35,4.45-1.35,1.29,0,2.39.31,3.31.94s1.58,1.52,1.99,2.66c.4,1.14.61,3.65.61,7.54v18.38h9.52v-22.38c0-2.77-.17-4.91-.52-6.4-.35-1.49-.97-2.83-1.86-4Z"/>
        <path class="cls-1" d="M315.4,67.88c-.63,0-1.17-.16-1.62-.47-.43-.32-.72-.72-.84-1.21-.12-.48-.19-2.2-.19-5.14v-14.5h6.51v-7.6h-6.51v-8.3l-9.57,3.5v4.79h-4.37v7.6h4.37v15.69c0,3.37.11,5.6.31,6.71.25,1.57.7,2.8,1.34,3.72.65.92,1.65,1.66,3.03,2.24,1.38.57,2.92.87,4.65.87,2.8,0,5.31-.48,7.52-1.43l-.81-7.39c-1.68.61-2.94.92-3.83.92Z"/>
        <path class="cls-1" d="M356.3,42.49c-.89-1.27-2.22-2.3-3.99-3.12-1.76-.81-3.74-1.22-5.94-1.22-4.26,0-7.94,1.8-11.01,5.39v-21.14l-9.53,3.48v49.09h9.53v-18.03c0-3.03.29-5.32.86-6.87.58-1.54,1.49-2.71,2.73-3.48,1.24-.76,2.66-1.14,4.24-1.14,1.38,0,2.52.3,3.44.89.92.6,1.55,1.4,1.91,2.42.36,1.02.55,3.42.55,7.18v19.02h9.52v-21.12c0-3.23-.16-5.62-.48-7.14-.32-1.54-.94-2.94-1.83-4.21Z"/>
        <path class="cls-1" d="M394.69,43.46c-3.11-3.54-7.33-5.31-12.69-5.31-4.77,0-8.71,1.69-11.83,5.07-3.12,3.38-4.68,8.05-4.68,14.02,0,4.99,1.19,9.13,3.57,12.41,3.01,4.09,7.64,6.14,13.9,6.14,3.95,0,7.24-.92,9.88-2.73,2.63-1.81,4.56-4.47,5.78-7.95l-9.49-1.59c-.52,1.8-1.29,3.12-2.3,3.93-1.02.82-2.27,1.23-3.76,1.23-2.2,0-4.03-.8-5.49-2.36-1.48-1.57-2.24-3.76-2.31-6.6h23.87c.14-7.29-1.34-12.71-4.44-16.25ZM375.44,53.88c-.02-2.6.65-4.66,2-6.18,1.35-1.5,3.07-2.26,5.14-2.26,1.95,0,3.6.71,4.96,2.15,1.35,1.43,2.06,3.53,2.14,6.29h-14.24Z"/>
        <path class="cls-1" d="M419.42,39.31c-1.21.77-2.57,2.36-4.09,4.77v-5.12h-8.85v36.01h9.53v-11.12c0-6.13.26-10.14.8-12.06.52-1.93,1.25-3.26,2.19-3.99.92-.73,2.05-1.09,3.39-1.09s2.87.51,4.47,1.55l2.94-8.3c-2.01-1.21-4.1-1.8-6.27-1.8-1.53,0-2.91.39-4.11,1.16Z"/>
        <path class="cls-1" d="M455.45,70.18c-10.78,0-16.18-6.81-16.18-20.41s5.5-19.72,16.53-19.72c6.61,0,11.03,3.47,13.26,10.41l6.52-1.53c-2.77-9.67-9.32-14.51-19.64-14.51-7.03,0-12.69,2.27-16.95,6.81-4.35,4.62-6.52,10.81-6.52,18.54s2.11,14.33,6.32,19.23c3.89,4.54,9.53,6.8,16.94,6.8,10.92,0,17.82-5.53,20.69-16.59l-6.6-1.66c-1.75,8.42-6.55,12.64-14.36,12.64Z"/>
        <path class="cls-1" d="M512.94,64.34v-15.41c-.05-.93-.12-1.74-.21-2.44-.29-1.71-.91-3.14-1.88-4.3-2.17-2.68-6.2-4.03-12.08-4.03-9.12,0-14.48,3.7-16.04,11.11l5.96.76c.61-2.31,1.42-3.94,2.44-4.86,1.43-1.34,3.75-2.01,6.95-2.01,3.47,0,5.88.76,7.22,2.29,1.02,1.16,1.53,3.02,1.53,5.55v1.12c-1.58.55-3.68,1.04-6.32,1.45-.87.14-2.08.3-3.6.48l-3.75.48c-7.64,1.07-11.46,4.7-11.46,10.91,0,6.9,4.16,10.34,12.5,10.34,4.58,0,8.93-1.75,13.05-5.27.19,1.62.61,3.09,1.25,4.44h6.39c-1.02-1.8-1.62-4.03-1.8-6.66-.1-1.07-.14-2.39-.14-3.96ZM506.83,59.14c0,1.9-.16,3.4-.48,4.51-.37,1.49-1.12,2.81-2.22,3.96-2.17,2.26-4.96,3.4-8.34,3.4-5.04,0-7.57-1.9-7.57-5.7,0-1.7.58-3.03,1.74-3.95.92-.75,2.41-1.32,4.45-1.74l6.04-.97c2.55-.46,4.67-1.04,6.39-1.74v2.22Z"/>
        <path class="cls-1" d="M538.28,38.18c-4.3,0-7.75,1.83-10.34,5.48v-4.65h-5.55v49.77h6.1v-17.57c2.41,3.02,5.55,4.52,9.44,4.52,4.49,0,8.2-1.69,11.11-5.07,3.06-3.57,4.58-8.31,4.58-14.24,0-5.45-1.42-9.85-4.24-13.18-2.77-3.38-6.47-5.07-11.11-5.07ZM544.53,67.26c-1.8,2.31-4.14,3.47-7.01,3.47-6.44,0-9.65-4.51-9.65-13.53,0-4.31.94-7.78,2.85-10.42,1.85-2.53,4.21-3.81,7.08-3.81,6.39,0,9.58,4.58,9.58,13.74,0,4.55-.94,8.06-2.85,10.56Z"/>
        <rect class="cls-1" x="560.98" y="39.01" width="6.11" height="35.96"/>
        <rect class="cls-1" x="560.98" y="25.25" width="6.11" height="6.95"/>
        <path class="cls-1" d="M587.99,70.03c-.51.1-.93.15-1.25.15-1.52,0-2.52-.45-2.98-1.33-.19-.41-.3-.94-.35-1.59-.04-.42-.06-1.13-.06-2.15v-21.53h6.1v-4.57h-6.1v-12.64l-6.11,3.68v8.96h-4.45v4.57h4.45v23.26c0,.75.05,1.42.14,2.01.14,1.44.43,2.6.91,3.48,1.16,2.31,3.68,3.47,7.57,3.47,1.34,0,2.85-.19,4.51-.56l-.91-5.4-1.45.2Z"/>
        <path class="cls-1" d="M624.86,64.34v-15.41c-.05-.93-.11-1.74-.21-2.44-.27-1.71-.89-3.14-1.86-4.3-2.19-2.68-6.21-4.03-12.09-4.03-9.12,0-14.46,3.7-16.04,11.11l5.98.76c.6-2.31,1.42-3.94,2.44-4.86,1.43-1.34,3.74-2.01,6.93-2.01,3.48,0,5.88.76,7.23,2.29,1.01,1.16,1.52,3.02,1.52,5.55v1.12c-1.57.55-3.68,1.04-6.31,1.45-.88.14-2.09.3-3.62.48l-3.74.48c-7.64,1.07-11.46,4.7-11.46,10.91,0,6.9,4.16,10.34,12.49,10.34,4.58,0,8.93-1.75,13.06-5.27.19,1.62.6,3.09,1.25,4.44h6.39c-1.02-1.8-1.63-4.03-1.81-6.66-.09-1.07-.14-2.39-.14-3.96ZM618.74,59.14c0,1.9-.16,3.4-.48,4.51-.36,1.49-1.11,2.81-2.22,3.96-2.17,2.26-4.95,3.4-8.32,3.4-5.04,0-7.57-1.9-7.57-5.7,0-1.7.57-3.03,1.74-3.95.92-.75,2.4-1.32,4.44-1.74l6.04-.97c2.55-.46,4.68-1.04,6.39-1.74v2.22Z"/>
        <polygon class="cls-1" points="631.68 74.97 637.79 74.97 637.79 31.47 631.68 25.25 631.68 74.97"/>
        <path class="cls-1" d="M667.94,56.74c-.95-.72-2.15-1.36-3.6-1.9-1.09-.41-2.45-.84-4.08-1.29l-4.15-1.02c-1.54-.36-2.74-.7-3.6-1.02-2.36-.95-3.54-2.22-3.54-3.81,0-3.08,2.54-4.62,7.62-4.62,4.58,0,7.14,1.93,7.68,5.78l5.85-.82c-.23-1.45-.54-2.63-.95-3.54-.5-1.13-1.27-2.15-2.31-3.06-2.45-2.18-5.99-3.26-10.61-3.26-4.03,0-7.25.98-9.66,2.92-2.27,1.86-3.4,4.26-3.4,7.21s1.16,5.35,3.47,7.07c.95.68,2.13,1.29,3.54,1.84,1.09.41,2.45.82,4.08,1.22l4.08,1.02c1.5.36,2.67.73,3.54,1.09,2.31.95,3.47,2.27,3.47,3.94,0,3.72-2.72,5.58-8.16,5.58s-8.43-2.42-9.11-7.28l-5.92.88c1.31,7.53,6.5,11.29,15.57,11.29,4.08,0,7.41-1.09,10-3.26,2.49-2.13,3.74-4.76,3.74-7.89s-1.18-5.35-3.54-7.07Z"/>
      </g>
      <path class="cls-1" d="M39.88,7.16s29.27,8.33,36.76,10.82c1.23.41,2.55.42,3.79.04l35.55-10.86c-24.7-9.36-50.04-9.72-76.1,0Z"/>
    </g>
  </g>
</svg>